<?xml version="1.0" encoding="UTF-8"?>
<svg id="Layer_1" data-name="Layer 1" xmlns="http://www.w3.org/2000/svg" viewBox="0 0 712.79 712.79">
  <defs>
    <style>
      .cls-1 {
        fill: #66c706;
      }

      .cls-2 {
        fill: #353535;
      }
    </style>
  </defs>
  <g>
    <polygon class="cls-2" points="452 192.48 499.26 315.07 542.26 309.02 558.01 349.87 515.01 355.91 562.08 477.97 476.15 490.04 460.4 449.18 503.37 443.15 424.79 239.38 381.83 245.41 366.07 204.56 452 192.48"/>
    <polygon class="cls-2" points="236.64 222.75 252.39 263.6 209.44 269.64 288 473.39 330.95 467.35 346.72 508.23 260.79 520.31 213.53 397.72 170.54 403.77 154.79 362.92 197.78 356.88 150.71 234.82 236.64 222.75"/>
  </g>
  <polygon class="cls-1" points="411.55 260.79 475.15 425.72 440.36 430.61 402.1 331.38 367.33 336.27 380.08 369.34 345.3 374.23 332.55 341.16 297.76 346.05 336.02 445.27 301.24 450.16 237.64 285.23 272.43 280.34 285.17 313.41 319.96 308.52 332.55 341.16 367.33 336.27 354.74 303.63 389.52 298.74 376.77 265.68 411.55 260.79"/>
</svg>